# Blender 3.5.1
# www.blender.org
mtllib arrow.mtl
o Plane
v -0.300310 0.000000 0.900000
v 0.000000 0.000000 0.900000
v -0.300310 0.000000 -0.200000
v 0.000000 0.000000 -0.200000
v 0.000000 0.000000 -0.900000
v -0.600310 0.000000 -0.200000
v -0.300310 0.091773 0.900000
v 0.000000 0.091773 0.900000
v -0.300310 0.091773 -0.200000
v 0.000000 0.091773 -0.200000
v 0.000000 0.091773 -0.900000
v -0.600310 0.091773 -0.200000
v 0.300310 0.000000 0.900000
v 0.300310 0.000000 -0.200000
v 0.600310 0.000000 -0.200000
v 0.300310 0.091773 0.900000
v 0.300310 0.091773 -0.200000
v 0.600310 0.091773 -0.200000
vn -0.0000 -1.0000 -0.0000
vn -0.0000 1.0000 -0.0000
vn -1.0000 -0.0000 -0.0000
vn -0.7591 -0.0000 -0.6510
vn -0.0000 -0.0000 1.0000
vn 1.0000 -0.0000 -0.0000
vn 0.7591 -0.0000 -0.6510
vt 0.000000 0.000000
vt 1.000000 0.000000
vt 0.000000 1.000000
vt 1.000000 1.000000
vt 0.000000 1.000000
vt 0.000000 1.000000
vt 0.000000 0.000000
vt 1.000000 0.000000
vt 0.000000 1.000000
vt 1.000000 1.000000
vt 0.000000 1.000000
vt 0.000000 1.000000
vt 0.000000 0.000000
vt 0.000000 1.000000
vt 0.000000 1.000000
vt 0.000000 0.000000
vt 0.000000 1.000000
vt 0.000000 1.000000
s 0
f 1/1/1 3/3/1 4/4/1 2/2/1
f 3/3/1 5/5/1 4/4/1
f 3/3/1 6/6/1 5/5/1
f 7/7/2 8/8/2 10/10/2 9/9/2
f 9/9/2 10/10/2 11/11/2
f 9/9/2 11/11/2 12/12/2
f 3/3/3 1/1/3 7/7/3 9/9/3
f 5/5/4 6/6/4 12/12/4 11/11/4
f 6/6/5 3/3/5 9/9/5 12/12/5
f 1/1/5 2/2/5 8/8/5 7/7/5
f 13/13/1 2/2/1 4/4/1 14/14/1
f 14/14/1 4/4/1 5/5/1
f 14/14/1 5/5/1 15/15/1
f 16/16/2 17/17/2 10/10/2 8/8/2
f 17/17/2 11/11/2 10/10/2
f 17/17/2 18/18/2 11/11/2
f 14/14/6 17/17/6 16/16/6 13/13/6
f 5/5/7 11/11/7 18/18/7 15/15/7
f 15/15/5 18/18/5 17/17/5 14/14/5
f 13/13/5 16/16/5 8/8/5 2/2/5
