# Blender 3.5.1
# www.blender.org
mtllib box.mtl
o Cube
v 1.000000 1.000000 -1.000000
v 1.000000 -1.000000 -1.000000
v 1.000000 1.000000 1.000000
v 1.000000 -1.000000 1.000000
v -1.000000 1.000000 -1.000000
v -1.000000 -1.000000 -1.000000
v -1.000000 1.000000 1.000000
v -1.000000 -1.000000 1.000000
vn -0.0000 1.0000 -0.0000
vn -0.0000 -0.0000 1.0000
vn -1.0000 -0.0000 -0.0000
vn -0.0000 -1.0000 -0.0000
vn 1.0000 -0.0000 -0.0000
vn -0.0000 -0.0000 -1.0000
vt 0.835980 -0.000254
vt 0.669029 1.000254
vt 0.166058 1.000254
vt 1.000694 1.000254
vt 0.669029 -0.000254
vt 0.166058 -0.000254
vt 0.669313 -0.000254
vt 0.166709 1.000254
vt 0.502362 1.000254
vt 0.166709 -0.000254
vt 0.834027 1.000254
vt 0.502362 -0.000254
vt 0.835980 1.000254
vt 0.496828 1.000254
vt 0.332725 1.000254
vt 0.496828 -0.000254
vt 1.000694 -0.000254
vt 0.332725 -0.000254
vt 0.669313 1.000254
vt 0.000042 1.000254
vt 0.663495 1.000254
vt 0.000042 -0.000254
vt 0.663495 -0.000254
vt 0.834027 -0.000254
s 0
usemtl Material
f 1/1/1 5/13/1 7/19/1 3/7/1
f 4/10/2 3/8/2 7/20/2 8/22/2
f 8/23/3 7/21/3 5/14/3 6/16/3
f 6/17/4 2/4/4 4/11/4 8/24/4
f 2/5/5 1/2/5 3/9/5 4/12/5
f 6/18/6 5/15/6 1/3/6 2/6/6
